<svg id="visual" viewBox="0 0 900 900" width="900" height="900" xmlns="http://www.w3.org/2000/svg" xmlns:xlink="http://www.w3.org/1999/xlink" version="1.1"><rect x="0" y="0" width="900" height="900" fill="#006b5e"></rect><g transform="translate(484.5332216626009 460.3007594262465)"><path d="M120 -220.5C161 -184.2 203.5 -163.1 229.7 -128.9C256 -94.7 266 -47.3 264.8 -0.7C263.7 46 251.3 92 231.4 137.2C211.5 182.4 184 226.7 144.2 244.2C104.3 261.7 52.2 252.4 -4.4 260C-61 267.7 -122 292.3 -179 284.7C-236 277.1 -289.1 237.3 -304.4 184.5C-319.7 131.7 -297.4 65.8 -305.3 -4.6C-313.2 -75 -351.5 -150 -324.4 -182.5C-297.3 -215 -204.9 -204.9 -140 -227.4C-75 -249.9 -37.5 -305 1 -306.7C39.5 -308.4 79 -256.8 120 -220.5" fill="#669b90"></path></g></svg>