<svg id="visual" viewBox="0 0 900 900" width="900" height="900" xmlns="http://www.w3.org/2000/svg" xmlns:xlink="http://www.w3.org/1999/xlink" version="1.1"><rect x="0" y="0" width="900" height="900" fill="#006b5e"></rect><g transform="translate(489.03020771318756 400.24503911219267)"><path d="M121.8 -195.4C168.5 -183.9 224.6 -173 247 -140.5C269.4 -108 258.2 -54 271 7.4C283.9 68.8 320.8 137.7 305.1 181.8C289.4 226 221.2 245.5 161.6 286.1C102 326.7 51 388.3 -4.7 396.6C-60.5 404.8 -121 359.6 -185.7 321.9C-250.3 284.2 -319.2 254.1 -354.9 201.7C-390.7 149.3 -393.3 74.7 -378.5 8.6C-363.6 -57.5 -331.2 -115 -298.3 -172.3C-265.4 -229.6 -231.9 -286.7 -182.1 -296.5C-132.3 -306.2 -66.2 -268.6 -14.3 -243.8C37.5 -219 75 -206.9 121.8 -195.4" fill="#669b90"></path></g></svg>