<svg id="visual" viewBox="0 0 900 300" width="900" height="300" xmlns="http://www.w3.org/2000/svg" xmlns:xlink="http://www.w3.org/1999/xlink" version="1.1"><rect x="0" y="0" width="900" height="300" fill="#151515"></rect><path d="M0 173L21.5 175.7C43 178.3 86 183.7 128.8 189.8C171.7 196 214.3 203 257.2 212.5C300 222 343 234 385.8 239.7C428.7 245.3 471.3 244.7 514.2 237.7C557 230.7 600 217.3 642.8 206.7C685.7 196 728.3 188 771.2 194.5C814 201 857 222 878.5 232.5L900 243L900 0L878.5 0C857 0 814 0 771.2 0C728.3 0 685.7 0 642.8 0C600 0 557 0 514.2 0C471.3 0 428.7 0 385.8 0C343 0 300 0 257.2 0C214.3 0 171.7 0 128.8 0C86 0 43 0 21.5 0L0 0Z" fill="#c4fcf0"></path><path d="M0 189L21.5 179.3C43 169.7 86 150.3 128.8 141.2C171.7 132 214.3 133 257.2 133.2C300 133.3 343 132.7 385.8 142.7C428.7 152.7 471.3 173.3 514.2 181.8C557 190.3 600 186.7 642.8 174.7C685.7 162.7 728.3 142.3 771.2 142.7C814 143 857 164 878.5 174.5L900 185L900 0L878.5 0C857 0 814 0 771.2 0C728.3 0 685.7 0 642.8 0C600 0 557 0 514.2 0C471.3 0 428.7 0 385.8 0C343 0 300 0 257.2 0C214.3 0 171.7 0 128.8 0C86 0 43 0 21.5 0L0 0Z" fill="#98d6c9"></path><path d="M0 101L21.5 100.7C43 100.3 86 99.7 128.8 101.5C171.7 103.3 214.3 107.7 257.2 117.3C300 127 343 142 385.8 142.8C428.7 143.7 471.3 130.3 514.2 120C557 109.7 600 102.3 642.8 103.8C685.7 105.3 728.3 115.7 771.2 126.3C814 137 857 148 878.5 153.5L900 159L900 0L878.5 0C857 0 814 0 771.2 0C728.3 0 685.7 0 642.8 0C600 0 557 0 514.2 0C471.3 0 428.7 0 385.8 0C343 0 300 0 257.2 0C214.3 0 171.7 0 128.8 0C86 0 43 0 21.5 0L0 0Z" fill="#6db1a4"></path><path d="M0 74L21.5 81.2C43 88.3 86 102.7 128.8 101.7C171.7 100.7 214.3 84.3 257.2 84.2C300 84 343 100 385.8 106.5C428.7 113 471.3 110 514.2 104.5C557 99 600 91 642.8 91.5C685.7 92 728.3 101 771.2 98C814 95 857 80 878.5 72.5L900 65L900 0L878.5 0C857 0 814 0 771.2 0C728.3 0 685.7 0 642.8 0C600 0 557 0 514.2 0C471.3 0 428.7 0 385.8 0C343 0 300 0 257.2 0C214.3 0 171.7 0 128.8 0C86 0 43 0 21.5 0L0 0Z" fill="#418d80"></path><path d="M0 62L21.5 57.2C43 52.3 86 42.7 128.8 39.7C171.7 36.7 214.3 40.3 257.2 47.2C300 54 343 64 385.8 67.5C428.7 71 471.3 68 514.2 61.2C557 54.3 600 43.7 642.8 39.2C685.7 34.7 728.3 36.3 771.2 38.7C814 41 857 44 878.5 45.5L900 47L900 0L878.5 0C857 0 814 0 771.2 0C728.3 0 685.7 0 642.8 0C600 0 557 0 514.2 0C471.3 0 428.7 0 385.8 0C343 0 300 0 257.2 0C214.3 0 171.7 0 128.8 0C86 0 43 0 21.5 0L0 0Z" fill="#006b5e"></path></svg>