<svg id="visual" viewBox="0 0 900 300" width="900" height="300" xmlns="http://www.w3.org/2000/svg" xmlns:xlink="http://www.w3.org/1999/xlink" version="1.1"><rect x="0" y="0" width="900" height="300" fill="#151515"></rect><path d="M0 154L21.5 168.7C43 183.3 86 212.7 128.8 215C171.7 217.3 214.3 192.7 257.2 184.5C300 176.3 343 184.7 385.8 194.3C428.7 204 471.3 215 514.2 212.7C557 210.3 600 194.7 642.8 186.8C685.7 179 728.3 179 771.2 179.5C814 180 857 181 878.5 181.5L900 182L900 0L878.5 0C857 0 814 0 771.2 0C728.3 0 685.7 0 642.8 0C600 0 557 0 514.2 0C471.3 0 428.7 0 385.8 0C343 0 300 0 257.2 0C214.3 0 171.7 0 128.8 0C86 0 43 0 21.5 0L0 0Z" fill="#c4fcf0"></path><path d="M0 193L21.5 188.8C43 184.7 86 176.3 128.8 164.2C171.7 152 214.3 136 257.2 130.7C300 125.3 343 130.7 385.8 140.8C428.7 151 471.3 166 514.2 165C557 164 600 147 642.8 141.2C685.7 135.3 728.3 140.7 771.2 142.2C814 143.7 857 141.3 878.5 140.2L900 139L900 0L878.5 0C857 0 814 0 771.2 0C728.3 0 685.7 0 642.8 0C600 0 557 0 514.2 0C471.3 0 428.7 0 385.8 0C343 0 300 0 257.2 0C214.3 0 171.7 0 128.8 0C86 0 43 0 21.5 0L0 0Z" fill="#98d6c9"></path><path d="M0 113L21.5 116.3C43 119.7 86 126.3 128.8 128.5C171.7 130.7 214.3 128.3 257.2 122.7C300 117 343 108 385.8 112.7C428.7 117.3 471.3 135.7 514.2 144.5C557 153.3 600 152.7 642.8 144C685.7 135.3 728.3 118.7 771.2 111.2C814 103.7 857 105.3 878.5 106.2L900 107L900 0L878.5 0C857 0 814 0 771.2 0C728.3 0 685.7 0 642.8 0C600 0 557 0 514.2 0C471.3 0 428.7 0 385.8 0C343 0 300 0 257.2 0C214.3 0 171.7 0 128.8 0C86 0 43 0 21.5 0L0 0Z" fill="#6db1a4"></path><path d="M0 105L21.5 96.8C43 88.7 86 72.3 128.8 71.5C171.7 70.7 214.3 85.3 257.2 88C300 90.7 343 81.3 385.8 84.2C428.7 87 471.3 102 514.2 102.7C557 103.3 600 89.7 642.8 87.5C685.7 85.3 728.3 94.7 771.2 93C814 91.3 857 78.7 878.5 72.3L900 66L900 0L878.5 0C857 0 814 0 771.2 0C728.3 0 685.7 0 642.8 0C600 0 557 0 514.2 0C471.3 0 428.7 0 385.8 0C343 0 300 0 257.2 0C214.3 0 171.7 0 128.8 0C86 0 43 0 21.5 0L0 0Z" fill="#418d80"></path><path d="M0 30L21.5 32.7C43 35.3 86 40.7 128.8 46.7C171.7 52.7 214.3 59.3 257.2 59.2C300 59 343 52 385.8 47C428.7 42 471.3 39 514.2 43.7C557 48.3 600 60.7 642.8 66C685.7 71.3 728.3 69.7 771.2 67.7C814 65.7 857 63.3 878.5 62.2L900 61L900 0L878.5 0C857 0 814 0 771.2 0C728.3 0 685.7 0 642.8 0C600 0 557 0 514.2 0C471.3 0 428.7 0 385.8 0C343 0 300 0 257.2 0C214.3 0 171.7 0 128.8 0C86 0 43 0 21.5 0L0 0Z" fill="#006b5e"></path></svg>