<svg id="visual" viewBox="0 0 900 300" width="900" height="300" xmlns="http://www.w3.org/2000/svg" xmlns:xlink="http://www.w3.org/1999/xlink" version="1.1"><rect x="0" y="0" width="900" height="300" fill="#151515"></rect><path d="M0 109L21.5 101.2C43 93.3 86 77.7 128.8 68.2C171.7 58.7 214.3 55.3 257.2 61.2C300 67 343 82 385.8 89.7C428.7 97.3 471.3 97.7 514.2 90.3C557 83 600 68 642.8 75.2C685.7 82.3 728.3 111.7 771.2 113.8C814 116 857 91 878.5 78.5L900 66L900 301L878.5 301C857 301 814 301 771.2 301C728.3 301 685.7 301 642.8 301C600 301 557 301 514.2 301C471.3 301 428.7 301 385.8 301C343 301 300 301 257.2 301C214.3 301 171.7 301 128.8 301C86 301 43 301 21.5 301L0 301Z" fill="#c4fcf0"></path><path d="M0 95L21.5 105.3C43 115.7 86 136.3 128.8 142.8C171.7 149.3 214.3 141.7 257.2 138.7C300 135.7 343 137.3 385.8 136.2C428.7 135 471.3 131 514.2 124.5C557 118 600 109 642.8 113.3C685.7 117.7 728.3 135.3 771.2 145.3C814 155.3 857 157.7 878.5 158.8L900 160L900 301L878.5 301C857 301 814 301 771.2 301C728.3 301 685.7 301 642.8 301C600 301 557 301 514.2 301C471.3 301 428.7 301 385.8 301C343 301 300 301 257.2 301C214.3 301 171.7 301 128.8 301C86 301 43 301 21.5 301L0 301Z" fill="#98d6c9"></path><path d="M0 152L21.5 155C43 158 86 164 128.8 168.5C171.7 173 214.3 176 257.2 172C300 168 343 157 385.8 157.7C428.7 158.3 471.3 170.7 514.2 181.2C557 191.7 600 200.3 642.8 196.8C685.7 193.3 728.3 177.7 771.2 170.3C814 163 857 164 878.5 164.5L900 165L900 301L878.5 301C857 301 814 301 771.2 301C728.3 301 685.7 301 642.8 301C600 301 557 301 514.2 301C471.3 301 428.7 301 385.8 301C343 301 300 301 257.2 301C214.3 301 171.7 301 128.8 301C86 301 43 301 21.5 301L0 301Z" fill="#6db1a4"></path><path d="M0 191L21.5 198.5C43 206 86 221 128.8 220.2C171.7 219.3 214.3 202.7 257.2 197.8C300 193 343 200 385.8 203.2C428.7 206.3 471.3 205.7 514.2 210.7C557 215.7 600 226.3 642.8 225C685.7 223.7 728.3 210.3 771.2 209.8C814 209.3 857 221.7 878.5 227.8L900 234L900 301L878.5 301C857 301 814 301 771.2 301C728.3 301 685.7 301 642.8 301C600 301 557 301 514.2 301C471.3 301 428.7 301 385.8 301C343 301 300 301 257.2 301C214.3 301 171.7 301 128.8 301C86 301 43 301 21.5 301L0 301Z" fill="#418d80"></path><path d="M0 267L21.5 261.7C43 256.3 86 245.7 128.8 246.3C171.7 247 214.3 259 257.2 259.3C300 259.7 343 248.3 385.8 242.5C428.7 236.7 471.3 236.3 514.2 238.7C557 241 600 246 642.8 249.2C685.7 252.3 728.3 253.7 771.2 256.2C814 258.7 857 262.3 878.5 264.2L900 266L900 301L878.5 301C857 301 814 301 771.2 301C728.3 301 685.7 301 642.8 301C600 301 557 301 514.2 301C471.3 301 428.7 301 385.8 301C343 301 300 301 257.2 301C214.3 301 171.7 301 128.8 301C86 301 43 301 21.5 301L0 301Z" fill="#006b5e"></path></svg>