<svg id="visual" viewBox="0 0 900 100" width="900" height="100" xmlns="http://www.w3.org/2000/svg" xmlns:xlink="http://www.w3.org/1999/xlink" version="1.1"><path d="M0 9L6.5 9.2C13 9.3 26 9.7 39 9.2C52 8.7 65 7.3 78 8.2C91 9 104 12 117.2 11.3C130.3 10.7 143.7 6.3 156.8 6C170 5.7 183 9.3 196 10.3C209 11.3 222 9.7 235 9.5C248 9.3 261 10.7 274 9.7C287 8.7 300 5.3 313 5C326 4.7 339 7.3 352 7.3C365 7.3 378 4.7 391 3.7C404 2.7 417 3.3 430.2 3C443.3 2.7 456.7 1.3 469.8 2.2C483 3 496 6 509 7.3C522 8.7 535 8.3 548 8.3C561 8.3 574 8.7 587 8.5C600 8.3 613 7.7 626 7.7C639 7.7 652 8.3 665 8.2C678 8 691 7 704 6.2C717 5.3 730 4.7 743.2 5.7C756.3 6.7 769.7 9.3 782.8 9C796 8.7 809 5.3 822 4.8C835 4.3 848 6.7 861 6.7C874 6.7 887 4.3 893.5 3.2L900 2L900 0L893.5 0C887 0 874 0 861 0C848 0 835 0 822 0C809 0 796 0 782.8 0C769.7 0 756.3 0 743.2 0C730 0 717 0 704 0C691 0 678 0 665 0C652 0 639 0 626 0C613 0 600 0 587 0C574 0 561 0 548 0C535 0 522 0 509 0C496 0 483 0 469.8 0C456.7 0 443.3 0 430.2 0C417 0 404 0 391 0C378 0 365 0 352 0C339 0 326 0 313 0C300 0 287 0 274 0C261 0 248 0 235 0C222 0 209 0 196 0C183 0 170 0 156.8 0C143.7 0 130.3 0 117.2 0C104 0 91 0 78 0C65 0 52 0 39 0C26 0 13 0 6.5 0L0 0Z" fill="#c4fcf0"></path><path d="M0 15L6.5 15.5C13 16 26 17 39 16C52 15 65 12 78 13.3C91 14.7 104 20.3 117.2 20.2C130.3 20 143.7 14 156.8 13C170 12 183 16 196 16.3C209 16.7 222 13.3 235 14C248 14.7 261 19.3 274 18.8C287 18.3 300 12.7 313 10.7C326 8.7 339 10.3 352 11C365 11.7 378 11.3 391 12C404 12.7 417 14.3 430.2 12.8C443.3 11.3 456.7 6.7 469.8 5.8C483 5 496 8 509 9.5C522 11 535 11 548 11.8C561 12.7 574 14.3 587 13.7C600 13 613 10 626 10.7C639 11.3 652 15.7 665 15.7C678 15.7 691 11.3 704 9.2C717 7 730 7 743.2 8.2C756.3 9.3 769.7 11.7 782.8 12.8C796 14 809 14 822 13.8C835 13.7 848 13.3 861 12.2C874 11 887 9 893.5 8L900 7L900 0L893.5 1.2C887 2.3 874 4.7 861 4.7C848 4.7 835 2.3 822 2.8C809 3.3 796 6.7 782.8 7C769.7 7.3 756.3 4.7 743.2 3.7C730 2.7 717 3.3 704 4.2C691 5 678 6 665 6.2C652 6.3 639 5.7 626 5.7C613 5.7 600 6.3 587 6.5C574 6.7 561 6.3 548 6.3C535 6.3 522 6.7 509 5.7C496 4.7 483 2.3 469.8 1.5C456.7 0.7 443.3 1.3 430.2 1.3C417 1.3 404 0.7 391 1.7C378 2.7 365 5.3 352 5.3C339 5.3 326 2.7 313 3C300 3.3 287 6.7 274 7.7C261 8.7 248 7.3 235 7.5C222 7.7 209 9.3 196 8.3C183 7.3 170 3.7 156.8 4C143.7 4.3 130.3 8.7 117.2 9.3C104 10 91 7 78 6.2C65 5.3 52 6.7 39 7.2C26 7.7 13 7.3 6.5 7.2L0 7Z" fill="#aee9dc"></path><path d="M0 29L6.5 28C13 27 26 25 39 22C52 19 65 15 78 16.3C91 17.7 104 24.3 117.2 24.8C130.3 25.3 143.7 19.7 156.8 20.2C170 20.7 183 27.3 196 27C209 26.7 222 19.3 235 18.8C248 18.3 261 24.7 274 25C287 25.3 300 19.7 313 17.5C326 15.3 339 16.7 352 18.8C365 21 378 24 391 27.5C404 31 417 35 430.2 33C443.3 31 456.7 23 469.8 22.2C483 21.3 496 27.7 509 28.5C522 29.3 535 24.7 548 23.2C561 21.7 574 23.3 587 21.5C600 19.7 613 14.3 626 15.7C639 17 652 25 665 28C678 31 691 29 704 25C717 21 730 15 743.2 14.5C756.3 14 769.7 19 782.8 23C796 27 809 30 822 29.7C835 29.3 848 25.7 861 22.3C874 19 887 16 893.5 14.5L900 13L900 5L893.5 6C887 7 874 9 861 10.2C848 11.3 835 11.7 822 11.8C809 12 796 12 782.8 10.8C769.7 9.7 756.3 7.3 743.2 6.2C730 5 717 5 704 7.2C691 9.3 678 13.7 665 13.7C652 13.7 639 9.3 626 8.7C613 8 600 11 587 11.7C574 12.3 561 10.7 548 9.8C535 9 522 9 509 7.5C496 6 483 3 469.8 3.8C456.7 4.7 443.3 9.3 430.2 10.8C417 12.3 404 10.7 391 10C378 9.3 365 9.7 352 9C339 8.3 326 6.7 313 8.7C300 10.7 287 16.3 274 16.8C261 17.3 248 12.7 235 12C222 11.3 209 14.7 196 14.3C183 14 170 10 156.8 11C143.7 12 130.3 18 117.2 18.2C104 18.3 91 12.7 78 11.3C65 10 52 13 39 14C26 15 13 14 6.5 13.5L0 13Z" fill="#98d6c9"></path><path d="M0 40L6.5 38C13 36 26 32 39 28.7C52 25.3 65 22.7 78 23.2C91 23.7 104 27.3 117.2 26.8C130.3 26.3 143.7 21.7 156.8 22.7C170 23.7 183 30.3 196 29.8C209 29.3 222 21.7 235 22C248 22.3 261 30.7 274 30.8C287 31 300 23 313 20.7C326 18.3 339 21.7 352 24.2C365 26.7 378 28.3 391 31.3C404 34.3 417 38.7 430.2 37.2C443.3 35.7 456.7 28.3 469.8 28.3C483 28.3 496 35.7 509 37.3C522 39 535 35 548 32.7C561 30.3 574 29.7 587 27.5C600 25.3 613 21.7 626 22.7C639 23.7 652 29.3 665 31.2C678 33 691 31 704 26.7C717 22.3 730 15.7 743.2 15.3C756.3 15 769.7 21 782.8 25.7C796 30.3 809 33.7 822 34.7C835 35.7 848 34.3 861 30.7C874 27 887 21 893.5 18L900 15L900 11L893.5 12.5C887 14 874 17 861 20.3C848 23.7 835 27.3 822 27.7C809 28 796 25 782.8 21C769.7 17 756.3 12 743.2 12.5C730 13 717 19 704 23C691 27 678 29 665 26C652 23 639 15 626 13.7C613 12.3 600 17.7 587 19.5C574 21.3 561 19.7 548 21.2C535 22.7 522 27.3 509 26.5C496 25.7 483 19.3 469.8 20.2C456.7 21 443.3 29 430.2 31C417 33 404 29 391 25.5C378 22 365 19 352 16.8C339 14.7 326 13.3 313 15.5C300 17.7 287 23.3 274 23C261 22.7 248 16.3 235 16.8C222 17.3 209 24.7 196 25C183 25.3 170 18.7 156.8 18.2C143.7 17.7 130.3 23.3 117.2 22.8C104 22.3 91 15.7 78 14.3C65 13 52 17 39 20C26 23 13 25 6.5 26L0 27Z" fill="#83c3b6"></path><path d="M0 75L6.5 68.2C13 61.3 26 47.7 39 41C52 34.3 65 34.7 78 37.8C91 41 104 47 117.2 46C130.3 45 143.7 37 156.8 38C170 39 183 49 196 52.3C209 55.7 222 52.3 235 53.3C248 54.3 261 59.7 274 57.3C287 55 300 45 313 40.2C326 35.3 339 35.7 352 35.5C365 35.3 378 34.7 391 40.8C404 47 417 60 430.2 63.7C443.3 67.3 456.7 61.7 469.8 57.2C483 52.7 496 49.3 509 47.7C522 46 535 46 548 43.7C561 41.3 574 36.7 587 33C600 29.3 613 26.7 626 28.8C639 31 652 38 665 41.3C678 44.7 691 44.3 704 42.3C717 40.3 730 36.7 743.2 38.5C756.3 40.3 769.7 47.7 782.8 50C796 52.3 809 49.7 822 54.2C835 58.7 848 70.3 861 72.7C874 75 887 68 893.5 64.5L900 61L900 13L893.5 16C887 19 874 25 861 28.7C848 32.3 835 33.7 822 32.7C809 31.7 796 28.3 782.8 23.7C769.7 19 756.3 13 743.2 13.3C730 13.7 717 20.3 704 24.7C691 29 678 31 665 29.2C652 27.3 639 21.7 626 20.7C613 19.7 600 23.3 587 25.5C574 27.7 561 28.3 548 30.7C535 33 522 37 509 35.3C496 33.7 483 26.3 469.8 26.3C456.7 26.3 443.3 33.7 430.2 35.2C417 36.7 404 32.3 391 29.3C378 26.3 365 24.7 352 22.2C339 19.7 326 16.3 313 18.7C300 21 287 29 274 28.8C261 28.7 248 20.3 235 20C222 19.7 209 27.3 196 27.8C183 28.3 170 21.7 156.8 20.7C143.7 19.7 130.3 24.3 117.2 24.8C104 25.3 91 21.7 78 21.2C65 20.7 52 23.3 39 26.7C26 30 13 34 6.5 36L0 38Z" fill="#6db1a4"></path><path d="M0 85L6.5 76.5C13 68 26 51 39 44C52 37 65 40 78 45C91 50 104 57 117.2 55.3C130.3 53.7 143.7 43.3 156.8 44.8C170 46.3 183 59.7 196 63.7C209 67.7 222 62.3 235 62C248 61.7 261 66.3 274 66C287 65.7 300 60.3 313 56.2C326 52 339 49 352 45.7C365 42.3 378 38.7 391 43.5C404 48.3 417 61.7 430.2 67.3C443.3 73 456.7 71 469.8 66.3C483 61.7 496 54.3 509 51.8C522 49.3 535 51.7 548 50.7C561 49.7 574 45.3 587 40.3C600 35.3 613 29.7 626 32.3C639 35 652 46 665 50.3C678 54.7 691 52.3 704 50.8C717 49.3 730 48.7 743.2 51.8C756.3 55 769.7 62 782.8 64.8C796 67.7 809 66.3 822 69.3C835 72.3 848 79.7 861 82C874 84.3 887 81.7 893.5 80.3L900 79L900 59L893.5 62.5C887 66 874 73 861 70.7C848 68.3 835 56.7 822 52.2C809 47.7 796 50.3 782.8 48C769.7 45.7 756.3 38.3 743.2 36.5C730 34.7 717 38.3 704 40.3C691 42.3 678 42.7 665 39.3C652 36 639 29 626 26.8C613 24.7 600 27.3 587 31C574 34.7 561 39.3 548 41.7C535 44 522 44 509 45.7C496 47.3 483 50.7 469.8 55.2C456.7 59.7 443.3 65.3 430.2 61.7C417 58 404 45 391 38.8C378 32.7 365 33.3 352 33.5C339 33.7 326 33.3 313 38.2C300 43 287 53 274 55.3C261 57.7 248 52.3 235 51.3C222 50.3 209 53.7 196 50.3C183 47 170 37 156.8 36C143.7 35 130.3 43 117.2 44C104 45 91 39 78 35.8C65 32.7 52 32.3 39 39C26 45.7 13 59.3 6.5 66.2L0 73Z" fill="#579f92"></path><path d="M0 85L6.5 77.8C13 70.7 26 56.3 39 50.8C52 45.3 65 48.7 78 53.5C91 58.3 104 64.7 117.2 63.7C130.3 62.7 143.7 54.3 156.8 55.3C170 56.3 183 66.7 196 69.2C209 71.7 222 66.3 235 67.3C248 68.3 261 75.7 274 75C287 74.3 300 65.7 313 60.5C326 55.3 339 53.7 352 51.7C365 49.7 378 47.3 391 51.7C404 56 417 67 430.2 72.8C443.3 78.7 456.7 79.3 469.8 75.3C483 71.3 496 62.7 509 60.3C522 58 535 62 548 61.7C561 61.3 574 56.7 587 51.3C600 46 613 40 626 41.8C639 43.7 652 53.3 665 57.8C678 62.3 691 61.7 704 60.5C717 59.3 730 57.7 743.2 59.5C756.3 61.3 769.7 66.7 782.8 69C796 71.3 809 70.7 822 73.2C835 75.7 848 81.3 861 82.8C874 84.3 887 81.7 893.5 80.3L900 79L900 77L893.5 78.3C887 79.7 874 82.3 861 80C848 77.7 835 70.3 822 67.3C809 64.3 796 65.7 782.8 62.8C769.7 60 756.3 53 743.2 49.8C730 46.7 717 47.3 704 48.8C691 50.3 678 52.7 665 48.3C652 44 639 33 626 30.3C613 27.7 600 33.3 587 38.3C574 43.3 561 47.7 548 48.7C535 49.7 522 47.3 509 49.8C496 52.3 483 59.7 469.8 64.3C456.7 69 443.3 71 430.2 65.3C417 59.7 404 46.3 391 41.5C378 36.7 365 40.3 352 43.7C339 47 326 50 313 54.2C300 58.3 287 63.7 274 64C261 64.3 248 59.7 235 60C222 60.3 209 65.7 196 61.7C183 57.7 170 44.3 156.8 42.8C143.7 41.3 130.3 51.7 117.2 53.3C104 55 91 48 78 43C65 38 52 35 39 42C26 49 13 66 6.5 74.5L0 83Z" fill="#418d80"></path><path d="M0 90L6.5 84.2C13 78.3 26 66.7 39 62C52 57.3 65 59.7 78 64C91 68.3 104 74.7 117.2 74.2C130.3 73.7 143.7 66.3 156.8 66.8C170 67.3 183 75.7 196 81.8C209 88 222 92 235 94.7C248 97.3 261 98.7 274 95.8C287 93 300 86 313 78.8C326 71.7 339 64.3 352 61.2C365 58 378 59 391 65.8C404 72.7 417 85.3 430.2 89.3C443.3 93.3 456.7 88.7 469.8 83.8C483 79 496 74 509 71.7C522 69.3 535 69.7 548 68.5C561 67.3 574 64.7 587 63C600 61.3 613 60.7 626 64.3C639 68 652 76 665 80.2C678 84.3 691 84.7 704 82.2C717 79.7 730 74.3 743.2 75.8C756.3 77.3 769.7 85.7 782.8 87.8C796 90 809 86 822 85.3C835 84.7 848 87.3 861 88.7C874 90 887 90 893.5 90L900 90L900 77L893.5 78.3C887 79.7 874 82.3 861 80.8C848 79.3 835 73.7 822 71.2C809 68.7 796 69.3 782.8 67C769.7 64.7 756.3 59.3 743.2 57.5C730 55.7 717 57.3 704 58.5C691 59.7 678 60.3 665 55.8C652 51.3 639 41.7 626 39.8C613 38 600 44 587 49.3C574 54.7 561 59.3 548 59.7C535 60 522 56 509 58.3C496 60.7 483 69.3 469.8 73.3C456.7 77.3 443.3 76.7 430.2 70.8C417 65 404 54 391 49.7C378 45.3 365 47.7 352 49.7C339 51.7 326 53.3 313 58.5C300 63.7 287 72.3 274 73C261 73.7 248 66.3 235 65.3C222 64.3 209 69.7 196 67.2C183 64.7 170 54.3 156.8 53.3C143.7 52.3 130.3 60.7 117.2 61.7C104 62.7 91 56.3 78 51.5C65 46.7 52 43.3 39 48.8C26 54.3 13 68.7 6.5 75.8L0 83Z" fill="#287c6f"></path><path d="M0 101L6.5 101C13 101 26 101 39 101C52 101 65 101 78 101C91 101 104 101 117.2 101C130.3 101 143.7 101 156.8 101C170 101 183 101 196 101C209 101 222 101 235 101C248 101 261 101 274 101C287 101 300 101 313 101C326 101 339 101 352 101C365 101 378 101 391 101C404 101 417 101 430.2 101C443.3 101 456.7 101 469.8 101C483 101 496 101 509 101C522 101 535 101 548 101C561 101 574 101 587 101C600 101 613 101 626 101C639 101 652 101 665 101C678 101 691 101 704 101C717 101 730 101 743.2 101C756.3 101 769.7 101 782.8 101C796 101 809 101 822 101C835 101 848 101 861 101C874 101 887 101 893.5 101L900 101L900 88L893.5 88C887 88 874 88 861 86.7C848 85.3 835 82.7 822 83.3C809 84 796 88 782.8 85.8C769.7 83.7 756.3 75.3 743.2 73.8C730 72.3 717 77.7 704 80.2C691 82.7 678 82.3 665 78.2C652 74 639 66 626 62.3C613 58.7 600 59.3 587 61C574 62.7 561 65.3 548 66.5C535 67.7 522 67.3 509 69.7C496 72 483 77 469.8 81.8C456.7 86.7 443.3 91.3 430.2 87.3C417 83.3 404 70.7 391 63.8C378 57 365 56 352 59.2C339 62.3 326 69.7 313 76.8C300 84 287 91 274 93.8C261 96.7 248 95.3 235 92.7C222 90 209 86 196 79.8C183 73.7 170 65.3 156.8 64.8C143.7 64.3 130.3 71.7 117.2 72.2C104 72.7 91 66.3 78 62C65 57.7 52 55.3 39 60C26 64.7 13 76.3 6.5 82.2L0 88Z" fill="#006b5e"></path></svg>